<?xml version="1.0" standalone="no"?>
<!DOCTYPE svg PUBLIC "-//W3C//DTD SVG 20010904//EN"
 "http://www.w3.org/TR/2001/REC-SVG-20010904/DTD/svg10.dtd">
<svg version="1.0" xmlns="http://www.w3.org/2000/svg"
 width="544.000000pt" height="544.000000pt" viewBox="0 0 544.000000 544.000000"
 preserveAspectRatio="xMidYMid meet">
<metadata>
Created by potrace 1.14, written by Peter Selinger 2001-2017
</metadata>
<g transform="translate(0.000000,544.000000) scale(0.100000,-0.100000)"
fill="#000000" stroke="none">
<path d="M2519 5416 c-2 -2 -35 -6 -74 -10 -75 -7 -135 -14 -175 -21 -14 -3
-45 -8 -70 -11 -25 -3 -48 -8 -51 -10 -3 -2 -21 -6 -40 -9 -19 -3 -52 -11 -74
-16 -22 -6 -48 -13 -57 -14 -26 -5 -285 -93 -321 -109 -18 -7 -53 -23 -79 -35
-26 -11 -51 -21 -54 -21 -3 0 -19 -9 -35 -21 -16 -11 -29 -18 -29 -15 0 3 -27
-11 -61 -30 -33 -18 -65 -34 -69 -34 -5 0 -10 -3 -12 -7 -1 -5 -32 -26 -68
-47 -70 -42 -263 -184 -320 -236 -156 -140 -275 -271 -398 -435 -10 -14 -94
-143 -123 -190 -36 -57 -132 -249 -164 -325 -66 -160 -147 -434 -169 -575 -2
-16 -8 -50 -12 -75 -4 -25 -8 -56 -9 -70 -1 -14 -6 -59 -11 -100 -15 -142 -8
-519 11 -640 2 -14 7 -45 10 -70 8 -63 40 -216 74 -346 45 -175 182 -487 289
-659 76 -122 207 -297 289 -385 86 -93 206 -207 273 -260 18 -14 37 -30 44
-35 17 -16 214 -155 219 -155 3 0 36 -19 73 -42 223 -135 539 -254 834 -312
208 -41 315 -50 575 -50 177 0 331 8 375 19 8 2 40 7 70 10 77 9 256 49 375
83 97 29 313 109 358 134 12 7 24 13 27 14 3 0 21 8 40 18 275 133 593 376
780 596 11 14 31 36 43 50 46 50 165 217 218 305 91 149 211 398 205 426 0 3
4 12 10 20 14 17 75 213 103 329 91 378 101 847 26 1240 -2 8 -6 26 -9 40 -3
14 -8 36 -10 50 -3 14 -9 40 -15 58 -5 18 -10 33 -9 35 2 12 -65 223 -86 272
-8 17 -17 41 -21 55 -28 95 -185 383 -291 535 -140 200 -368 430 -579 583 -67
49 -135 92 -144 92 -6 0 -11 3 -11 8 0 4 -10 12 -23 18 -12 6 -62 33 -112 60
-84 46 -253 125 -279 131 -6 1 -42 14 -81 29 -70 26 -207 68 -255 78 -45 9
-71 15 -88 20 -9 3 -29 7 -45 10 -15 3 -53 10 -85 15 -31 6 -79 13 -107 17
-27 3 -66 8 -85 10 -43 6 -506 15 -511 10z m381 -410 c172 -13 355 -43 460
-76 19 -6 44 -13 54 -15 31 -7 118 -36 151 -51 17 -7 59 -25 95 -39 81 -33
274 -134 278 -146 2 -5 8 -9 14 -9 6 0 26 -11 44 -25 18 -14 37 -25 43 -25 6
0 11 -4 11 -8 0 -4 12 -15 28 -24 15 -9 36 -25 47 -35 11 -10 38 -31 60 -48
22 -16 85 -75 140 -130 86 -85 139 -147 246 -285 10 -13 19 -30 19 -37 0 -7 5
-13 10 -13 6 0 10 -6 10 -14 0 -8 4 -16 8 -18 13 -5 84 -131 140 -249 48 -100
135 -340 146 -402 3 -15 7 -35 10 -45 3 -9 7 -28 10 -42 3 -14 10 -52 17 -85
26 -136 34 -235 34 -455 0 -243 -6 -318 -44 -508 -23 -115 -84 -318 -126 -417
-37 -88 -96 -208 -116 -236 -11 -16 -18 -29 -14 -29 3 0 -12 -27 -35 -59 -22
-33 -40 -65 -40 -70 0 -6 -3 -11 -8 -11 -4 0 -18 -18 -32 -40 -14 -22 -28 -40
-32 -40 -5 0 -8 -5 -8 -11 0 -6 -6 -16 -12 -23 -7 -8 -31 -35 -53 -62 -77 -93
-284 -291 -333 -318 -9 -5 -23 -15 -30 -22 -24 -25 -178 -122 -272 -172 -87
-46 -301 -138 -339 -146 -9 -1 -47 -12 -86 -24 -38 -12 -81 -24 -95 -27 -14
-2 -54 -11 -90 -19 -36 -8 -87 -17 -115 -20 -27 -4 -77 -10 -110 -15 -33 -5
-163 -8 -290 -6 -222 3 -258 5 -355 22 -25 4 -49 8 -55 8 -5 1 -23 4 -40 8
-16 4 -41 8 -55 11 -14 2 -50 11 -81 20 -31 9 -66 19 -78 21 -24 5 -135 41
-166 55 -11 5 -49 21 -85 36 -294 120 -594 344 -805 599 -53 64 -161 219 -191
275 -14 25 -36 65 -50 90 -14 25 -43 88 -65 140 -22 52 -44 104 -49 115 -12
28 -51 146 -55 168 -2 9 -6 21 -9 25 -3 5 -7 19 -10 33 -3 13 -7 35 -10 49
-25 114 -43 222 -52 305 -3 28 -7 66 -9 85 -5 42 -6 347 -1 411 5 57 14 127
27 204 6 33 13 76 16 95 17 117 98 367 164 510 61 133 167 314 214 367 5 6 21
28 35 48 52 75 225 259 317 337 256 217 601 386 943 462 162 35 217 43 390 52
63 4 116 7 117 8 3 2 122 -2 203 -8z"/>
<path d="M2132 4410 c-8 -6 -10 -290 -2 -291 3 0 33 -2 68 -4 82 -4 117 -19
144 -64 l23 -36 5 -1349 5 -1349 350 0 350 0 1 1429 c1 1083 -2 1442 -11 1481
-20 88 -80 149 -170 175 -40 11 -749 19 -763 8z"/>
<path d="M1481 3719 c-32 -8 -69 -24 -84 -35 -23 -17 -62 -79 -76 -124 -8 -26
-12 -2240 -4 -2241 5 0 158 -1 341 -2 l332 -2 0 1210 0 1210 -226 0 c-174 0
-240 -4 -283 -16z"/>
<path d="M3460 3700 c-1 -52 -1 -2331 0 -2360 l0 -25 323 2 c177 0 330 2 340
2 16 1 17 58 17 1089 -1 1180 0 1156 -55 1228 -65 85 -115 97 -397 98 l-228 2
0 -36z"/>
</g>
</svg>
