<svg xmlns:xlink="http://www.w3.org/1999/xlink" xmlns="http://www.w3.org/2000/svg" xml:space="preserve" style="max-height: 500px" viewBox="384.3638836 0 135.64170000000001 135.01930501930502" y="0px" x="0px" id="Layer_1" version="1.1" width="135.64170000000001" height="135.01930501930502">
<style type="text/css">
	.st0{fill:#ffffff;}
</style>
<g>
	<path d="M47,72.6H28l10.1-32.9L47,72.6z M19.1,105.9l6-20.1h24.4l6,20.1h20.2L54.2,29.7c-1.2-5-3.6-6.6-8.9-6.6H15.5&#10;&#9;&#9;V30h2.4c3.6,0,5.4,1.1,5.4,3.9c0,1.7,0,2.9-1.8,7L0,105.9" class="st0" fill="#ffffff"/>
	<path d="M101.2,105.9V29.2c0-4-2.4-6.1-6.5-6.1H76.2V30h1.2c3.6,0,5.4,1.5,5.4,4.7v71.2 M134.5,105.9V29.2&#10;&#9;&#9;c0-4-2.4-6.1-6.5-6.1h-18.5V30h1.2c3.6,0,5.4,1.5,5.4,4.7v71.2" class="st0" fill="#ffffff"/>
	<g>
		<path d="M168.5,30.4c0-5.5-4.2-8.7-10.7-8.7c-7.1,0-10.7,3.2-10.7,8.7c0,5.6,3.6,8.9,10.7,8.9&#10;&#9;&#9;&#9;C164.3,39.3,168.5,36,168.5,30.4 M167.9,105.9V50c0-3.9-2.4-6.1-6-6.1h-18.5v6.7h1.2c3.6,0,4.8,1.5,4.8,4.9v50.4 M211.9,75.8v12.4&#10;&#9;&#9;&#9;c-3.6,3.6-7.7,5.6-11.3,5.6c-3.6,0-5.4-1.7-5.4-6.4c0-5.1,1.2-7.1,5.4-8.7C203.6,77.5,206.6,76.7,211.9,75.8 M185.7,61l1.8-0.7&#10;&#9;&#9;&#9;c4.8-1.9,7.7-2.6,11.3-3.3c1.8-0.2,4.2-0.5,5.4-0.5c6,0,7.7,2,7.7,7.4v1.5c-8.3,1.4-10.7,1.8-15.5,2.9c-2.4,0.6-4.8,1.4-7.1,2.4&#10;&#9;&#9;&#9;c-7.7,3.1-11.3,9-11.3,18.4c0,11.7,4.8,17.3,15.5,17.3c4.2,0,8.3-1,11.3-2.9c3-1.4,4.2-2.1,7.7-5.4v1.9c0,3.9,1.8,5.7,5.4,5.7&#10;&#9;&#9;&#9;h17.9v-6.4h-0.6c-3.6,0-5.4-1.6-5.4-4.8V64.2c0-15.8-5.4-21.2-20.8-21.2c-5.4,0-10.1,0.6-14.9,1.7c-4.8,1.1-7.1,2-12.5,4.8&#10;&#9;&#9;&#9; M263.7,105.9v-42c4.2-3.9,7.1-5.4,11.3-5.4c4.2,0,5.4,1.8,5.4,8.1v39.3h18.5V63.6c0-8.7-1.2-12.4-3.6-15.7&#10;&#9;&#9;&#9;c-3-3.2-6.5-4.7-11.9-4.7c-7.1,0-12.5,2.6-20.8,9.8v-3.3c0-3.9-1.8-5.8-5.4-5.8h-17.9v6.7h0.6c3.6,0,5.4,1.5,5.4,4.9v50.4" class="st0" fill="#ffffff"/>
		<g transform="matrix(6.78093 0 0 -6.78093 -9880.484 5165.031)">
			<path d="M1509.6,747.8h-4l3.9,5.5v1.9h-5.8c-0.7,0-1-0.3-1-1v-1.7h1v0.2c0,0.5,0.3,0.7,0.8,0.7h2.1l-4-5.5v-1.9h7" class="st0" fill="#ffffff"/>
			<path d="M1525.1,746.6v10.3c0,0.8-0.4,1.1-1.1,1.1h-2.4v-1.1h0.3c0.4,0,0.6-0.2,0.6-0.7v-9.6H1525.1z M1526.5,746.6&#10;&#9;&#9;&#9;&#9;h2.5v7.8c0,0.8-0.4,1.1-1.1,1.1h-1.4V746.6z M1521.1,746.6v8.9h-1.4c-0.8,0-1.1-0.3-1.1-1.1v-7.8H1521.1z M1532.1,751.8&#10;&#9;&#9;&#9;&#9;c0-4.8-3.5-8.4-8.3-8.4s-8.3,3.5-8.3,8.4c0,4.8,3.5,8.4,8.3,8.4S1532.1,756.6,1532.1,751.8 M1533.7,751.8c0,5.7-4.2,9.9-9.9,9.9&#10;&#9;&#9;&#9;&#9;c-5.6,0-9.9-4.2-9.9-9.9c0-5.7,4.3-9.9,9.9-9.9C1529.5,741.9,1533.7,746.1,1533.7,751.8" class="st0" fill="#ffffff"/>
		</g>
	</g>
</g>
</svg>